<mxfile host="app.diagrams.net" agent="Mozilla/5.0 (Windows NT 10.0; Win64; x64) AppleWebKit/537.36 (KHTML, like Gecko) Chrome/129.0.0.0 Safari/537.36" version="24.7.17">
  <diagram name="Page-1" id="rXEd0Na0F2_yUdA8KFcq">
    <mxGraphModel dx="1290" dy="563" grid="1" gridSize="10" guides="1" tooltips="1" connect="1" arrows="1" fold="1" page="1" pageScale="1" pageWidth="850" pageHeight="1100" math="0" shadow="0">
      <root>
        <mxCell id="0" />
        <mxCell id="1" parent="0" />
        <mxCell id="5mafub_w8q4ovYGP8qvb-1" value="User" style="shape=umlActor;verticalLabelPosition=bottom;verticalAlign=top;html=1;outlineConnect=0;" vertex="1" parent="1">
          <mxGeometry x="110" y="170" width="30" height="60" as="geometry" />
        </mxCell>
        <mxCell id="5mafub_w8q4ovYGP8qvb-2" value="" style="endArrow=none;html=1;rounded=0;" edge="1" parent="1" source="5mafub_w8q4ovYGP8qvb-1" target="5mafub_w8q4ovYGP8qvb-12">
          <mxGeometry width="50" height="50" relative="1" as="geometry">
            <mxPoint x="205" y="250" as="sourcePoint" />
            <mxPoint x="160" y="200" as="targetPoint" />
          </mxGeometry>
        </mxCell>
        <mxCell id="5mafub_w8q4ovYGP8qvb-3" value="Tạo tin tuyển dụng" style="ellipse;whiteSpace=wrap;html=1;" vertex="1" parent="1">
          <mxGeometry x="180" y="125" width="120" height="50" as="geometry" />
        </mxCell>
        <mxCell id="5mafub_w8q4ovYGP8qvb-4" value="gán category" style="ellipse;whiteSpace=wrap;html=1;" vertex="1" parent="1">
          <mxGeometry x="390" y="100" width="110" height="50" as="geometry" />
        </mxCell>
        <mxCell id="5mafub_w8q4ovYGP8qvb-5" value="&amp;lt;&amp;lt;include&amp;gt;&amp;gt;" style="endArrow=open;endSize=12;dashed=1;html=1;rounded=0;strokeColor=default;align=center;verticalAlign=middle;fontFamily=Helvetica;fontSize=11;fontColor=default;labelBackgroundColor=default;edgeStyle=none;" edge="1" parent="1" source="5mafub_w8q4ovYGP8qvb-3" target="5mafub_w8q4ovYGP8qvb-4">
          <mxGeometry x="0.0007" width="160" relative="1" as="geometry">
            <mxPoint x="430" y="210" as="sourcePoint" />
            <mxPoint x="320" y="210" as="targetPoint" />
            <mxPoint as="offset" />
          </mxGeometry>
        </mxCell>
        <mxCell id="5mafub_w8q4ovYGP8qvb-6" value="Nhập thông tin" style="ellipse;whiteSpace=wrap;html=1;" vertex="1" parent="1">
          <mxGeometry x="390" y="170" width="110" height="50" as="geometry" />
        </mxCell>
        <mxCell id="5mafub_w8q4ovYGP8qvb-7" value="&amp;lt;&amp;lt;include&amp;gt;&amp;gt;" style="endArrow=open;endSize=12;dashed=1;html=1;rounded=0;strokeColor=default;align=center;verticalAlign=middle;fontFamily=Helvetica;fontSize=11;fontColor=default;labelBackgroundColor=default;edgeStyle=none;" edge="1" parent="1" source="5mafub_w8q4ovYGP8qvb-3" target="5mafub_w8q4ovYGP8qvb-6">
          <mxGeometry x="0.0007" width="160" relative="1" as="geometry">
            <mxPoint x="414.14" y="460" as="sourcePoint" />
            <mxPoint x="694.14" y="470" as="targetPoint" />
            <mxPoint as="offset" />
          </mxGeometry>
        </mxCell>
        <mxCell id="5mafub_w8q4ovYGP8qvb-8" value="Cập nhật" style="ellipse;whiteSpace=wrap;html=1;" vertex="1" parent="1">
          <mxGeometry x="380" y="260" width="120" height="50" as="geometry" />
        </mxCell>
        <mxCell id="5mafub_w8q4ovYGP8qvb-9" value="Xóa" style="ellipse;whiteSpace=wrap;html=1;" vertex="1" parent="1">
          <mxGeometry x="380" y="330" width="120" height="50" as="geometry" />
        </mxCell>
        <mxCell id="5mafub_w8q4ovYGP8qvb-10" value="&amp;lt;&amp;lt;extend&amp;gt;&amp;gt;" style="endArrow=open;endSize=12;dashed=1;html=1;rounded=0;strokeColor=default;align=center;verticalAlign=middle;fontFamily=Helvetica;fontSize=11;fontColor=default;labelBackgroundColor=default;edgeStyle=none;" edge="1" parent="1" source="5mafub_w8q4ovYGP8qvb-12" target="5mafub_w8q4ovYGP8qvb-8">
          <mxGeometry x="0.0007" width="160" relative="1" as="geometry">
            <mxPoint x="400.2749360326892" y="444.01624263434405" as="sourcePoint" />
            <mxPoint x="634.14" y="420" as="targetPoint" />
            <mxPoint as="offset" />
          </mxGeometry>
        </mxCell>
        <mxCell id="5mafub_w8q4ovYGP8qvb-11" value="&amp;lt;&amp;lt;extend&amp;gt;&amp;gt;" style="endArrow=open;endSize=12;dashed=1;html=1;rounded=0;strokeColor=default;align=center;verticalAlign=middle;fontFamily=Helvetica;fontSize=11;fontColor=default;labelBackgroundColor=default;edgeStyle=none;" edge="1" parent="1" source="5mafub_w8q4ovYGP8qvb-12" target="5mafub_w8q4ovYGP8qvb-9">
          <mxGeometry x="0.0007" width="160" relative="1" as="geometry">
            <mxPoint x="380.00006978857107" y="437.4412157163531" as="sourcePoint" />
            <mxPoint x="524.14" y="300" as="targetPoint" />
            <mxPoint as="offset" />
          </mxGeometry>
        </mxCell>
        <mxCell id="5mafub_w8q4ovYGP8qvb-12" value="Chọn tin tuyển dụng" style="ellipse;whiteSpace=wrap;html=1;" vertex="1" parent="1">
          <mxGeometry x="182" y="295" width="120" height="50" as="geometry" />
        </mxCell>
        <mxCell id="5mafub_w8q4ovYGP8qvb-13" value="" style="endArrow=none;html=1;rounded=0;" edge="1" parent="1" source="5mafub_w8q4ovYGP8qvb-1" target="5mafub_w8q4ovYGP8qvb-3">
          <mxGeometry width="50" height="50" relative="1" as="geometry">
            <mxPoint x="150" y="223" as="sourcePoint" />
            <mxPoint x="284" y="342" as="targetPoint" />
          </mxGeometry>
        </mxCell>
      </root>
    </mxGraphModel>
  </diagram>
</mxfile>
